:SAMPLES-PER-SECOND 30
:FULLY-SPECIFIED
:DEGREES
459
root  -3.67982 37.0883 3.63804 -160.871 -85.1061 159.635
RightUpLeg  -21.9505 -1.10443 7.08335
RightLeg  43.388 -15.8032 -15.6679
RightFoot  -15.6853 -0.140324 -0.871323
RightToes  -5.28226e-011 1.30204e-014 -6.03759e-014
Spine  5.49671 -6.59005 -7.08742
Spine1  -3.80669 -9.99795 18.9495
HEad  -14.0729 28.3203 -18.941
LeftShoulder1  2.36422 -6.03118 -18.2161
LeftArm  16.446 -15.7779 -71.2702
LeftForeArm  5.3159 -3.33958 -16.8031
LeftHand  -0.895136 0.204049 19.938
RightShoulder  1.49165 2.29796 19.2878
RightArm  -22.1559 6.14844 51.489
RightForeArm  3.46563 -6.81604 9.06079
RightHand  -0.307956 -3.60071 -19.4344
LeftUpLeg  -3.3059 19.0683 0.050178
LeftLeg  49.4439 -2.72099 -2.97607
LeftFoot  -16.4324 -0.671818 -17.7201
LeftToes  -2.42178e-010 -1.66495e-011 -2.88221e-011
460
root  -4.05651 36.5603 3.60378 -176.226 -80.4263 175.01
RightUpLeg  -22.8251 0.858419 8.47745
RightLeg  46.3843 -13.269 -14.7573
RightFoot  -17.39 -0.191875 -1.39489
RightToes  -5.28226e-011 1.30204e-014 -6.03759e-014
Spine  6.82242 -6.5752 -5.57276
Spine1  -3.61939 -9.85893 18.9597
HEad  -17.2421 32.4936 -20.4805
LeftShoulder1  1.95246 -4.30913 -18.4066
LeftArm  -13.0387 -8.08676 -56.0948
LeftForeArm  -8.41501 3.7207 -12.7518
LeftHand  -0.239088 4.06442 21.109
RightShoulder  1.15731 1.28236 17.6575
RightArm  -26.4275 0.808175 39.9411
RightForeArm  -26.6816 -3.44339 6.13094
RightHand  -0.1671 -4.35143 -17.1725
LeftUpLeg  -9.14366 19.3631 3.30486
LeftLeg  63.3005 -3.66135 -7.22753
LeftFoot  -7.75009 0.760565 -22.4297
LeftToes  -2.42178e-010 -1.66495e-011 -2.88221e-011
461
root  -4.38502 36.3299 3.62972 -176.666 -75.4281 175.942
RightUpLeg  -23.6245 1.91222 8.58666
RightLeg  47.8454 -10.938 -12.9855
RightFoot  -18.2442 -0.270668 -2.44696
RightToes  -5.28226e-011 1.30204e-014 -6.03759e-014
Spine  6.77408 -6.33469 -2.95356
Spine1  -2.90502 -8.93537 16.4024
HEad  -18.953 35.5963 -20.8396
LeftShoulder1  1.37512 -2.42506 -16.4448
LeftArm  -20.5524 -0.0203729 -43.0694
LeftForeArm  -37.0408 4.01066 -8.21556
LeftHand  0.635947 8.3935 24.4123
RightShoulder  0.801088 0.22723 14.6884
RightArm  -27.9666 -0.756672 28.7184
RightForeArm  -50.6447 -3.7437 3.48885
RightHand  0.433886 -8.30472 -17.7065
LeftUpLeg  -14.3999 17.7684 6.35267
LeftLeg  76.0365 -2.55287 -10.4615
LeftFoot  1.24481 2.86857 -25.7787
LeftToes  -2.42178e-010 -1.66495e-011 -2.88221e-011
462
root  -4.73324 36.5936 3.75388 -173.077 -70.1255 172.963
RightUpLeg  -23.3282 4.01866 6.79185
RightLeg  46.4934 -9.06194 -10.4176
RightFoot  -18.202 -0.309559 -3.1153
RightToes  -5.28226e-011 1.30204e-014 -6.03759e-014
Spine  6.23253 -5.52011 -0.221757
Spine1  -2.67508 -7.03847 12.0144
HEad  -19.0233 37.4135 -20.2018
LeftShoulder1  0.719066 -0.156772 -12.4692
LeftArm  -25.5415 5.25771 -31.9151
LeftForeArm  -56.4256 5.00681 -4.17488
LeftHand  1.63378 12.0139 28.0218
RightShoulder  0.40747 -1.23371 10.7195
RightArm  -29.3745 0.538266 18.4105
RightForeArm  -58.1359 -4.49521 1.82186
RightHand  0.663884 -8.97257 -21.8953
LeftUpLeg  -17.7199 14.2256 8.98714
LeftLeg  86.9123 -0.522863 -11.6836
LeftFoot  8.90325 4.98569 -27.7607
LeftToes  -2.42178e-010 -1.66495e-011 -2.88221e-011
463
root  -5.08668 37.2976 3.98412 -169.389 -64.5929 169.726
RightUpLeg  -21.8809 7.45625 3.84783
RightLeg  42.3864 -7.87549 -7.92427
RightFoot  -16.4624 -0.263987 -3.42391
RightToes  -5.28226e-011 1.30204e-014 -6.03759e-014
Spine  6.7315 -4.19734 2.38702
Spine1  -4.46205 -4.43565 6.90067
HEad  -17.936 38.5048 -19.0293
LeftShoulder1  0.113494 2.75501 -6.58617
LeftArm  -28.9587 7.53526 -22.8251
LeftForeArm  -63.253 4.00618 -1.38269
LeftHand  2.2713 13.8784 30.2863
RightShoulder  0.0668429 -3.01434 6.19414
RightArm  -30.8992 3.04155 9.13807
RightForeArm  -55.1902 -3.73012 1.27328
RightHand  0.207756 -6.54061 -21.4126
LeftUpLeg  -19.2069 8.41857 11.2939
LeftLeg  96.2548 1.53929 -12.2204
LeftFoot  16.6265 7.24819 -28.9764
LeftToes  -2.42178e-010 -1.66495e-011 -2.88221e-011
